<svg xmlns="http://www.w3.org/2000/svg" width="101.018" height="117.205" viewBox="0 0 101.018 117.205">
  <g id="Grupo_12" data-name="Grupo 12" transform="translate(-156.207 -70)">
    <g id="Logo" transform="translate(156.207 70)">
      <g id="Camada_2" data-name="Camada 2">
        <path id="Caminho_1" data-name="Caminho 1" d="M21.278.08h0L21.6,85.048A10.543,10.543,0,0,1,11,95.647h0A10.735,10.735,0,0,1,.317,84.969L.08,21.278A21.087,21.087,0,0,1,21.278.08Z" transform="translate(33.441 82.96) rotate(-135)" fill="#fff"/>
        <path id="Caminho_2" data-name="Caminho 2" d="M18.157,15.785l14.886,15h0a21.087,21.087,0,0,1-29.984,0h0a10.711,10.711,0,0,1,0-15.092h0a10.52,10.52,0,0,1,15.1.095Z" transform="translate(0.05 21.653)" fill="#fff" opacity="0.5"/>
        <ellipse id="Elipse_1" data-name="Elipse 1" cx="11.4" cy="11.485" rx="11.4" ry="11.485" transform="translate(73.582 51.154)" fill="#fff"/>
      </g>
    </g>
    <path id="União_3" data-name="União 3" d="M88.48,30.411a7.6,7.6,0,0,1,0-15.206h.662a7.6,7.6,0,1,1,0,15.206Zm-41.454,0V0H62.894c8.763,0,15.868,6.808,15.868,15.206s-7.1,15.206-15.868,15.206Zm-10.382,0a7.6,7.6,0,0,1,0-15.206h.662a7.6,7.6,0,1,1,0,15.206Zm-18.239-3.76V13.685H13.548a3.548,3.548,0,0,1,0-7.1H30.783a3.548,3.548,0,1,1,0,7.1H25.926V26.651a3.761,3.761,0,0,1-7.521,0Z" transform="translate(153.627 156.794)" fill="#fff"/>
  </g>
</svg>
